<?xml version="1.0" ?><svg style="enable-background:new 0 0 96 96;" version="1.1" viewBox="0 0 96 96" xml:space="preserve" xmlns="http://www.w3.org/2000/svg" xmlns:xlink="http://www.w3.org/1999/xlink"><g id="Layer_2"><g id="XMLID_356_"><g id="XMLID_313_"><g id="XMLID_339_"><path d="M43.998,79.359c4.53-5.764,4.976-16.336,4.976-16.336      c3.737-0.72,8.337-2.744,9.838-6.869s-8.026-11.826-8.026-11.826s-6.88-8.576-10.993-7.042c-4.114,1.534-6.101,6.15-6.791,9.893      c0,0-10.568,0.53-16.296,5.106C10.979,56.861,5.592,65.231,17.68,78.68C31.225,90.66,39.468,85.123,43.998,79.359z" id="XMLID_352_" style="fill:#E80029;"/></g><path d="M43.998,79.359c4.53-5.764,4.976-16.336,4.976-16.336     c3.737-0.72,8.337-2.744,9.838-6.869c0.712-1.957-1.058-4.717-3.114-7.079c-0.006,0.313-0.053,0.614-0.156,0.897     c-1.501,4.126-6.101,6.15-9.838,6.869c0,0-0.446,10.572-4.976,16.336S27.955,84.478,14.41,72.498     c-1.221-1.359-2.256-2.663-3.138-3.919c1.024,2.99,3.034,6.347,6.407,10.101C31.225,90.66,39.468,85.123,43.998,79.359z" id="XMLID_364_" style="fill:#BB0021;"/><g id="XMLID_338_"><path d="M16.65,79.718l-0.056-0.062c-5.471-6.087-8.026-11.834-7.593-17.081      c0.351-4.263,2.638-8.109,6.795-11.431c4.954-3.958,13.037-5.059,16.007-5.338c0.722-2.989,2.637-8.082,7.48-9.889      c4.74-1.768,11.072,5.562,12.544,7.373c1.969,1.609,10.088,8.608,8.358,13.362c-1.768,4.858-6.846,6.813-9.829,7.559      c-0.255,2.973-1.291,11.064-5.21,16.049l0,0c-3.315,4.218-7.148,6.551-11.393,6.935c-5.205,0.471-10.939-2.026-17.041-7.423      L16.65,79.718z M47.357,42.712c-2.47-2.45-5.474-4.647-7.054-4.058c-4.23,1.578-5.558,7.126-5.865,8.789l-0.209,1.135      l-1.153,0.059c-0.101,0.005-10.173,0.566-15.458,4.789c-3.504,2.8-5.424,5.959-5.707,9.389      c-0.363,4.397,1.924,9.385,6.799,14.827c5.451,4.805,10.424,7.041,14.78,6.647c3.412-0.309,6.562-2.271,9.36-5.832l0,0      c4.18-5.319,4.661-15.395,4.665-15.496l0.049-1.153l1.133-0.219c1.661-0.32,7.198-1.693,8.742-5.935      c0.781-2.147-4.056-7.351-7.572-10.191l-0.122-0.099l-0.099-0.123C49.003,44.438,48.211,43.56,47.357,42.712z" id="XMLID_357_" style="fill:#004363;"/></g></g><g id="XMLID_177_"><g id="XMLID_337_"><rect height="40.817" id="XMLID_348_" style="fill:#F8CB00;" transform="matrix(0.7099 0.7043 -0.7043 0.7099 43.1851 -30.7178)" width="7.413" x="55.176" y="16.658"/></g><g id="XMLID_336_"><path d="M47.149,56.23l-7.336-7.278l30.803-31.05l7.336,7.278L47.149,56.23z       M43.943,48.936l3.189,3.164l26.69-26.904l-3.189-3.164L43.943,48.936z" id="XMLID_353_" style="fill:#004363;"/></g></g><g id="XMLID_178_"><g id="XMLID_335_"><rect height="15.854" id="XMLID_344_" style="fill:#C8A300;" transform="matrix(0.7099 0.7043 -0.7043 0.7099 36.0401 -47.679)" width="10.751" x="70.525" y="11.985"/></g><g id="XMLID_334_"><path d="M74.142,31.39l-9.706-9.628L77.659,8.433l9.706,9.628L74.142,31.39z       M68.567,21.745l5.559,5.515l9.109-9.182l-5.559-5.515L68.567,21.745z" id="XMLID_349_" style="fill:#004363;"/></g></g><g id="XMLID_310_"><g id="XMLID_332_"><circle cx="40.42" cy="55.677" id="XMLID_340_" r="5.737" style="fill:#C8A300;"/></g><g id="XMLID_328_"><path d="M35.352,60.786c-2.817-2.795-2.836-7.361-0.041-10.178      c2.795-2.817,7.361-2.836,10.178-0.041c2.817,2.795,2.836,7.361,0.041,10.178C42.735,63.563,38.169,63.581,35.352,60.786z       M43.432,52.641c-1.674-1.661-4.387-1.65-6.048,0.024c-1.661,1.674-1.65,4.387,0.024,6.048s4.387,1.65,6.048-0.024      C45.117,57.014,45.106,54.301,43.432,52.641z" id="XMLID_345_" style="fill:#004363;"/></g></g><g id="XMLID_316_"><g id="XMLID_327_"><rect height="4.659" id="XMLID_323_" style="fill:#F8CB00;" transform="matrix(0.7099 0.7043 -0.7043 0.7099 55.3367 -1.8715)" width="16.036" x="21.922" y="63.911"/></g><g id="XMLID_325_"><path d="M34,75.606l-13.457-13.35l5.338-5.381l13.457,13.35L34,75.606z M24.673,62.24      l9.311,9.237l1.224-1.234l-9.311-9.237L24.673,62.24z" id="XMLID_341_" style="fill:#004363;"/></g></g></g></g></svg>