<svg xmlns="http://www.w3.org/2000/svg" viewBox="0 0 1142.87 769.82"><defs><style>.cls-1{fill:#fff;}.cls-2{fill:#c60c30;}</style></defs><title>logo_manzalab_6</title><g id="Layer_2" data-name="Layer 2"><g id="Calque_1" data-name="Calque 1"><path class="cls-1" d="M195.5,644.24a57.31,57.31,0,0,0-19.13-12.72,61.15,61.15,0,0,0-45,0,57,57,0,0,0-19.12,12.72,57.6,57.6,0,0,0-6,7,58.29,58.29,0,0,0-6-7,57.21,57.21,0,0,0-19.13-12.72,61.1,61.1,0,0,0-44.35-.26,55.32,55.32,0,0,0-15.59,9.32l-2.35-6.87H0V764.06H22.59v-78.2a35.37,35.37,0,0,1,2.8-14,36.48,36.48,0,0,1,7.74-11.48,36,36,0,0,1,11.48-7.74,36.55,36.55,0,0,1,27.72-.13,35.19,35.19,0,0,1,11.34,7.61,38.34,38.34,0,0,1,7.88,11.52A41.59,41.59,0,0,1,95,685.86v78.2h22.6V685.93a37.72,37.72,0,0,1,3.15-14.33,38.49,38.49,0,0,1,7.87-11.52A34.91,34.91,0,0,1,140,652.49a36.76,36.76,0,0,1,27.86.11,36.36,36.36,0,0,1,11.49,7.74,38.4,38.4,0,0,1,7.88,11.51,34.16,34.16,0,0,1,2.91,14v78.2h22.59v-78.2a58.4,58.4,0,0,0-17.27-41.62Z"/><path class="cls-1" d="M355.1,648.48a71,71,0,1,0-77.43,115.88A69.9,69.9,0,0,0,305,769.82a78.58,78.58,0,0,0,14-1.3,63.25,63.25,0,0,0,14.21-4.3,61.87,61.87,0,0,0,13.2-7.83,53.24,53.24,0,0,0,7-6.48v14.15h22.59V698.88a71.5,71.5,0,0,0-5.33-27.26A70.63,70.63,0,0,0,355.1,648.48ZM305,650.29a47,47,0,0,1,18.8,3.81,49.4,49.4,0,0,1,15.38,10.37A48.85,48.85,0,0,1,349.49,680a47.87,47.87,0,0,1,3.81,18.92,47.09,47.09,0,0,1-3.8,18.79,48.54,48.54,0,0,1-25.75,25.76,48.68,48.68,0,0,1-37.58,0,48.38,48.38,0,0,1-25.74-25.76,46.79,46.79,0,0,1-3.81-18.79A47.8,47.8,0,0,1,260.43,680a48.6,48.6,0,0,1,10.35-15.49,49.11,49.11,0,0,1,15.39-10.37A46.91,46.91,0,0,1,305,650.29Z"/><path class="cls-1" d="M502.43,644.24a57.15,57.15,0,0,0-19.14-12.72c-14.12-5.68-30.59-5.92-44.34.43a56.77,56.77,0,0,0-15.43,10.62l-2.38-8.86h-19V764.06h22.58v-78.2a35.38,35.38,0,0,1,2.81-14,36.06,36.06,0,0,1,58.77-11.48,37.89,37.89,0,0,1,7.89,11.51,34.2,34.2,0,0,1,2.92,14v78.2h22.58v-78.2a58.36,58.36,0,0,0-17.28-41.62Z"/><polygon class="cls-1" points="538.47 633.72 538.47 656.31 593.92 656.31 536.79 764.06 630.21 764.06 630.21 741.47 574.51 741.47 631.88 633.72 538.47 633.72"/><path class="cls-1" d="M755,648.48a70.93,70.93,0,0,0-100.3,0,70.34,70.34,0,0,0-15.45,23.14,71.79,71.79,0,0,0,0,54.29,70.95,70.95,0,0,0,65.6,43.91,78.83,78.83,0,0,0,14-1.3,63.49,63.49,0,0,0,14.2-4.3,61.87,61.87,0,0,0,13.2-7.83,52.55,52.55,0,0,0,7-6.48v14.15h22.59V698.88a71.68,71.68,0,0,0-5.32-27.26A70.44,70.44,0,0,0,755,648.48Zm-50.15,1.81a47,47,0,0,1,18.79,3.81A48.36,48.36,0,0,1,749.4,680a48.21,48.21,0,0,1,3.79,18.92,47.26,47.26,0,0,1-3.79,18.79,48.35,48.35,0,0,1-89.08,0,46.79,46.79,0,0,1-3.81-18.79A47.8,47.8,0,0,1,660.32,680a48.49,48.49,0,0,1,10.37-15.49,49.06,49.06,0,0,1,15.38-10.37A46.89,46.89,0,0,1,704.86,650.29Z"/><rect class="cls-1" x="802.05" y="583.6" width="22.6" height="180.46"/><path class="cls-1" d="M964.47,648.48a70.9,70.9,0,0,0-100.28,0,70.09,70.09,0,0,0-15.47,23.14,71.79,71.79,0,0,0,0,54.29,71,71,0,0,0,65.61,43.91,78.53,78.53,0,0,0,14-1.3,63.73,63.73,0,0,0,14.23-4.3,61.81,61.81,0,0,0,13.19-7.83,52.55,52.55,0,0,0,6.95-6.48v14.15h22.6V698.88a71.68,71.68,0,0,0-5.32-27.26A70.81,70.81,0,0,0,964.47,648.48Zm-50.14,1.81a47,47,0,0,1,18.79,3.81,49.36,49.36,0,0,1,15.37,10.37A48.54,48.54,0,0,1,958.86,680a48,48,0,0,1,3.8,18.92,47.26,47.26,0,0,1-3.79,18.79,48.63,48.63,0,0,1-25.75,25.76,48.68,48.68,0,0,1-37.58,0,48.51,48.51,0,0,1-25.76-25.76A47.12,47.12,0,0,1,866,698.88a48,48,0,0,1,3.8-18.92,48.19,48.19,0,0,1,25.75-25.86A46.93,46.93,0,0,1,914.33,650.29Z"/><path class="cls-1" d="M1137.53,671.62a70.13,70.13,0,0,0-15.45-23.14,70.9,70.9,0,0,0-98.49-1.73V583.6H1001v115a71.36,71.36,0,0,0,5.33,27.27,71,71,0,0,0,131.19,0,71.66,71.66,0,0,0,0-54.29Zm-17.26,27a47.84,47.84,0,0,1-3.81,18.92,48.73,48.73,0,0,1-10.36,15.5,49.25,49.25,0,0,1-15.37,10.37,48.71,48.71,0,0,1-37.59,0,49.25,49.25,0,0,1-15.37-10.37,48.7,48.7,0,0,1-10.37-15.5,47.8,47.8,0,0,1-3.81-18.92,47.06,47.06,0,0,1,3.8-18.79,48.65,48.65,0,0,1,25.75-25.75,48.26,48.26,0,0,1,37.59,0,48.53,48.53,0,0,1,25.73,25.75A46.93,46.93,0,0,1,1120.27,698.64Z"/><path class="cls-2" d="M421.4,116.51a209.49,209.49,0,0,1,299.41,0c82.67,83.92,82.67,220,0,303.93a209.5,209.5,0,0,1-299.41,0C338.72,336.51,338.74,200.43,421.4,116.51Z"/><path class="cls-2" d="M882.76,61.35a93.87,93.87,0,0,0-62-12c-37.6,5.69-66.82,32.89-77.34,67.49a94,94,0,0,0,62,12C843.06,123.17,872.28,96,882.76,61.35Z"/><path class="cls-2" d="M730.37,101.07l.08,0A96.45,96.45,0,0,1,793.57,33a98.54,98.54,0,0,0,2.69-33,93.66,93.66,0,0,0-13,5.36C746.83,23.62,727,62.3,730.37,101.07Z"/></g></g></svg>