<svg xmlns="http://www.w3.org/2000/svg" viewBox="0 0 100 125" width="100" height="125">
	<style>
		tspan { white-space:pre }
		.shp0 { fill: #FFFFFF } 
	</style>
	<g id="Layer">
		<g id="Layer">
			<path id="Layer" class="shp0" d="M99.69 61.59C97.77 57.55 95.81 53.51 93.89 49.47C92.89 47.35 91.92 45.21 90.96 43.08C90.35 41.7 89.28 41.36 88.07 42.19C85.6 43.88 78.15 48.98 73.93 49.02C71.67 49.05 69.48 48.75 67.34 48.16C65.94 47.79 64.56 47.31 63.2 46.77C61.09 45.93 59.02 45.05 57.1 44.98C55.66 44.97 54.74 45.08 53.91 45.79L53.73 45.95L52.01 47.52C52 47.52 52 47.52 52 47.52L45.42 53.56C45.29 53.68 45.17 53.81 45.06 53.93C44.91 54.04 44.77 54.15 44.64 54.27L38.05 60.31C37.94 60.41 37.83 60.52 37.74 60.63C37.67 60.69 37.6 60.77 37.54 60.85C37.35 61.1 37.21 61.39 37.15 61.67C36.75 63.67 38.85 66.51 40.87 66.88C43.47 67.34 45.87 66.87 47.98 65.33C49.27 64.39 50.69 63.31 52.13 62.23C52.53 61.92 52.92 61.62 53.32 61.33C53.34 61.3 53.37 61.28 53.4 61.27C53.78 60.97 54.15 60.68 54.53 60.4C54.53 60.4 54.53 60.39 54.54 60.39C55.66 59.67 56.97 59.31 58.32 59.31C58.97 59.31 59.6 59.39 60.2 59.55C61.17 59.81 62.07 60.28 62.86 60.91C62.89 60.92 62.91 60.95 62.94 60.97C63.06 61.08 63.2 61.2 63.32 61.31C63.36 61.35 63.38 61.37 63.42 61.41C63.73 61.66 64.02 61.94 64.32 62.23C65.17 63.04 65.98 63.88 66.77 64.76L69.73 67.73C69.87 67.86 69.97 67.99 70.09 68.12C70.22 68.24 70.35 68.35 70.48 68.48L76.79 74.79C76.79 74.8 76.79 74.8 76.8 74.8L79.55 77.54C80.36 77.97 81.2 77.83 82.08 77.11C83.43 75.98 85.5 74.34 86.88 73.26C88.92 71.64 96.95 65.91 99.02 64.34C99.98 63.6 100.23 62.73 99.69 61.59Z" />
			<path id="Layer" class="shp0" d="M28.08 71.59C26.67 70.19 24.39 70.19 22.98 71.59L16.66 77.91C15.25 79.32 15.25 81.6 16.66 83.01C18.07 84.42 20.35 84.42 21.76 83.01L28.08 76.69C29.49 75.29 29.49 73 28.08 71.59Z" />
			<path id="Layer" class="shp0" d="M35.59 77.29C34.18 75.88 31.9 75.88 30.49 77.29L24.17 83.61C22.77 85.01 22.77 87.29 24.17 88.7C25.58 90.11 27.86 90.11 29.27 88.7L35.59 82.39C37 80.98 37 78.69 35.59 77.29Z" />
			<path id="Layer" class="shp0" d="M43.45 81.94C42.05 80.53 39.76 80.53 38.36 81.94L32.04 88.26C30.63 89.67 30.63 91.95 32.04 93.36C33.45 94.77 35.73 94.77 37.14 93.36L43.45 87.04C44.86 85.63 44.86 83.35 43.45 81.94Z" />
			<path id="Layer" class="shp0" d="M51.55 92.03C52.32 90.95 52.41 89.56 51.84 88.4C51.67 88.05 51.44 87.72 51.14 87.42C50.85 87.13 50.52 86.9 50.17 86.73C49.08 86.2 47.77 86.25 46.73 86.9C46.48 87.04 46.26 87.21 46.05 87.43L39.73 93.75C38.33 95.16 38.33 97.44 39.73 98.85C41.14 100.26 43.42 100.26 44.83 98.85L51.14 92.53C51.3 92.38 51.44 92.21 51.55 92.03Z" />
			<path id="Layer" class="shp0" d="M69.94 71.11C69.87 71.03 69.79 70.95 69.7 70.88L68.38 69.55L68.15 69.32L66.1 67.26L64.91 66.09L63.17 64.33L63.06 64.24L62.55 63.72L61.83 63.01C61.52 62.69 61.19 62.43 60.82 62.23C60.39 61.96 59.9 61.78 59.39 61.68C59.05 61.59 58.69 61.55 58.33 61.55C57.44 61.55 56.58 61.79 55.83 62.23C55.66 62.33 55.49 62.43 55.34 62.56C55.15 62.69 54.99 62.84 54.82 63.01C54.8 63.03 54.76 63.05 54.74 63.09C54.3 63.48 53.83 63.86 53.37 64.24C52.91 64.6 52.46 64.95 51.99 65.3C51.72 65.5 51.44 65.71 51.16 65.9L51.16 65.91C49.85 66.83 48.47 67.66 47.04 68.37C42.37 70.64 37.66 69.6 34.93 64.81C34.82 64.62 34.73 64.44 34.66 64.24C34.56 63.98 34.49 63.72 34.44 63.45C34.2 61.96 34.71 60.34 35.8 59.3C38.79 56.49 41.78 53.67 44.76 50.84C45.87 49.8 46.99 48.75 48.13 47.66C48.41 47.39 48.71 47.12 49 46.84C48.14 46.12 47.18 45.96 46.22 45.91C46.12 45.9 46.02 45.89 45.92 45.89C42.25 45.73 38.71 46.52 35.2 47.41C35.04 47.45 34.9 47.49 34.75 47.53C34.67 47.55 34.59 47.58 34.5 47.6C34.05 47.76 33.6 47.9 33.15 48.02C32.98 48.07 32.83 48.11 32.66 48.16C31.69 48.46 30.71 48.74 29.71 48.87C28.26 49.07 26.91 49.1 26.07 49.03C24.4 48.9 22.24 48.19 20.07 47.13C16.75 45.49 13.44 43.21 11.93 42.18C11.35 41.8 10.81 41.67 10.33 41.79C9.8 41.91 9.36 42.36 9.03 43.08C8.07 45.21 7.11 47.35 6.11 49.47C4.19 53.52 2.23 57.55 0.31 61.59C-0.23 62.72 0.02 63.6 0.98 64.33C3.05 65.91 11.08 71.64 13.12 73.26C13.42 73.51 13.76 73.78 14.13 74.06C14.17 74.09 14.22 74.13 14.27 74.16C14.92 74.64 15.5 75.06 15.97 75.43L21.39 70C22.49 68.9 23.96 68.29 25.53 68.29C26.69 68.29 27.79 68.63 28.74 69.25C29.07 69.46 29.38 69.72 29.66 70C29.79 70.13 29.92 70.26 30.03 70.4C30.11 70.49 30.18 70.59 30.25 70.68C30.32 70.79 30.4 70.89 30.47 71C30.55 71.13 30.62 71.27 30.69 71.38C30.71 71.42 30.74 71.45 30.75 71.5C30.8 71.61 30.86 71.71 30.9 71.81C30.94 71.9 30.98 71.99 31.01 72.09C31.04 72.18 31.07 72.26 31.09 72.35C31.15 72.5 31.19 72.64 31.21 72.79C31.25 72.92 31.27 73.03 31.29 73.16C31.33 73.33 31.34 73.49 31.35 73.66C31.38 73.84 31.39 74.04 31.38 74.23C31.4 74.22 31.43 74.21 31.45 74.21C31.6 74.16 31.74 74.13 31.89 74.1C32.02 74.08 32.16 74.04 32.3 74.04C32.4 74.02 32.49 74.01 32.6 74.01C32.75 74 32.89 73.98 33.04 73.98C33.22 73.98 33.4 74 33.57 74.01C33.61 74.01 33.66 74.02 33.71 74.02C34.05 74.07 34.39 74.13 34.72 74.23C35.17 74.36 35.62 74.56 36.04 74.82C36.05 74.82 36.06 74.82 36.08 74.84C36.18 74.9 36.28 74.97 36.37 75.03C36.46 75.09 36.56 75.16 36.65 75.24C36.73 75.3 36.8 75.36 36.87 75.43C36.98 75.51 37.08 75.6 37.18 75.7C37.31 75.83 37.41 75.96 37.53 76.08C37.58 76.14 37.62 76.2 37.67 76.27C37.77 76.39 37.84 76.5 37.93 76.62C38.02 76.76 38.11 76.9 38.18 77.06C38.37 77.4 38.52 77.75 38.63 78.12C38.68 78.27 38.72 78.42 38.75 78.57C38.78 78.72 38.82 78.87 38.83 79.02C39.48 78.77 40.19 78.64 40.9 78.64C42.47 78.64 43.94 79.24 45.04 80.35C45.73 81.04 46.21 81.86 46.48 82.74C46.61 83.14 46.69 83.54 46.73 83.95C46.74 84.11 46.75 84.27 46.75 84.43C47 84.34 47.24 84.27 47.5 84.23C47.65 84.19 47.8 84.18 47.96 84.16L48.08 84.16C48.25 84.13 48.43 84.12 48.6 84.12C48.72 84.12 48.84 84.12 48.95 84.13C50.38 84.22 51.71 84.81 52.74 85.85C53.88 86.98 54.45 88.48 54.45 89.98C54.45 90.17 54.44 90.35 54.41 90.52C54.43 90.53 54.43 90.54 54.41 90.56C54.4 90.69 54.39 90.82 54.37 90.93C54.37 90.95 54.36 90.97 54.36 90.99C54.33 91.22 54.27 91.43 54.2 91.64C54.17 91.79 54.12 91.93 54.06 92.07C54.06 92.07 54.06 92.08 54.05 92.1C54.03 92.16 54 92.23 53.97 92.3C53.93 92.39 53.89 92.48 53.85 92.56C53.82 92.62 53.78 92.69 53.75 92.76C53.61 93.03 53.44 93.27 53.26 93.52C53.23 93.56 53.2 93.6 53.16 93.64C53.11 93.7 53.07 93.75 53.02 93.8C52.94 93.92 52.83 94.03 52.74 94.12L47.57 99.28C48.29 99.68 49.11 99.91 49.95 99.91C51.1 99.91 52.2 99.52 53.07 98.79C53.09 98.78 53.1 98.77 53.13 98.75C53.23 98.66 53.34 98.56 53.44 98.45C53.95 97.95 54.32 97.36 54.57 96.74C54.77 96.22 54.87 95.65 54.88 95.1C55.62 95.52 56.45 95.75 57.31 95.75C58.63 95.75 59.88 95.23 60.81 94.29C61.98 93.12 62.44 91.49 62.17 89.96C63.06 90.72 64.19 91.13 65.37 91.13C66.69 91.13 67.92 90.61 68.86 89.68C70.09 88.46 70.54 86.75 70.21 85.17C70.97 85.63 71.84 85.89 72.75 85.89C74.09 85.89 75.33 85.38 76.26 84.43C78.19 82.51 78.19 79.37 76.26 77.43L69.94 71.11Z" />
		</g>
	</g>
</svg>
