<svg xmlns="http://www.w3.org/2000/svg" viewBox="0 0 52 65" width="52" height="65">
	<style>
		tspan { white-space:pre }
		.shp0 { fill: #FFFFFF } 
	</style>
	<g id="Layer">
		<g id="Layer">
			<path id="Layer" class="shp0" d="M16.23 38.22C15.01 39.63 13.21 40.52 11.2 40.52C9.19 40.52 7.39 39.63 6.16 38.22C4.29 39.69 3.08 41.96 3.08 44.52L3.08 47.18C3.08 48.73 4.34 50 5.89 50L16.5 50C18.05 50 19.32 48.73 19.32 47.18L19.32 44.52C19.32 41.96 18.11 39.69 16.23 38.22Z" />
		</g>
		<g id="Layer">
			<path id="Layer" class="shp0" d="M11.2 38.52C13.78 38.52 15.88 36.42 15.88 33.84C15.88 31.25 13.78 29.15 11.2 29.15C8.61 29.15 6.51 31.25 6.51 33.84C6.51 36.42 8.61 38.52 11.2 38.52Z" />
		</g>
		<g id="Layer">
			<path id="Layer" class="shp0" d="M34.7 21.47L34.7 19.9L39.8 19.9L39.8 23.91L39.08 23.19C38.69 22.8 38.06 22.8 37.67 23.19C37.28 23.58 37.28 24.21 37.67 24.61L40.1 27.03C40.29 27.23 40.55 27.33 40.8 27.33C41.06 27.33 41.31 27.23 41.51 27.03L43.94 24.61C44.33 24.22 44.33 23.58 43.94 23.19C43.55 22.8 42.91 22.8 42.52 23.19L41.8 23.91L41.8 18.9C41.8 18.35 41.35 17.9 40.8 17.9L34.67 17.9C34.52 15.31 33.21 13.04 31.24 11.6C29.95 13.06 28.08 13.98 26 13.98C23.92 13.98 22.05 13.06 20.76 11.6C18.79 13.04 17.48 15.31 17.33 17.9L11.2 17.9C10.65 17.9 10.2 18.35 10.2 18.9L10.2 23.91L9.48 23.19C9.09 22.8 8.45 22.8 8.06 23.19C7.67 23.58 7.67 24.21 8.06 24.61L10.49 27.03C10.5 27.04 10.51 27.04 10.51 27.05C10.6 27.13 10.7 27.2 10.81 27.25C10.94 27.3 11.07 27.33 11.2 27.33C11.2 27.33 11.2 27.33 11.2 27.33L11.2 27.33C11.2 27.33 11.21 27.32 11.21 27.32C11.34 27.32 11.46 27.3 11.58 27.25C11.7 27.2 11.81 27.12 11.91 27.03L14.33 24.61C14.72 24.22 14.72 23.58 14.33 23.19C13.94 22.8 13.31 22.8 12.92 23.19L12.2 23.91L12.2 19.9L17.3 19.9L17.3 21.47C17.3 23.08 18.61 24.39 20.21 24.39L31.79 24.39C33.39 24.39 34.7 23.08 34.7 21.47Z" />
		</g>
		<g id="Layer">
			<path id="Layer" class="shp0" d="M26 11.98C28.75 11.98 30.99 9.74 30.99 6.99C30.99 4.23 28.75 2 26 2C23.25 2 21.01 4.23 21.01 6.99C21.01 9.74 23.25 11.98 26 11.98Z" />
		</g>
		<g id="Layer">
			<path id="Layer" class="shp0" d="M45.84 38.22C44.61 39.63 42.81 40.52 40.8 40.52C38.79 40.52 36.99 39.63 35.77 38.22C33.89 39.69 32.68 41.96 32.68 44.52L32.68 47.18C32.68 48.73 33.95 50 35.5 50L46.11 50C47.66 50 48.92 48.73 48.92 47.18L48.92 44.52C48.92 41.96 47.71 39.69 45.84 38.22Z" />
		</g>
		<g id="Layer">
			<path id="Layer" class="shp0" d="M40.8 29.15C38.22 29.15 36.12 31.25 36.12 33.84C36.12 36.42 38.22 38.52 40.8 38.52C43.39 38.52 45.49 36.42 45.49 33.84C45.49 31.25 43.39 29.15 40.8 29.15Z" />
		</g>
	</g>
</svg>
