<svg xmlns="http://www.w3.org/2000/svg" viewBox="0 0 66 83" width="66" height="83">
	<style>
		tspan { white-space:pre }
		.shp0 { fill: #000000 } 
	</style>
	<g id="Layer">
		<g id="Layer">
			<path id="Layer" fill-rule="evenodd" class="shp0" d="M29.1 3L29.1 7.6C29.1 8.5 28.3 9.3 27.4 9.3L12.3 9.3C11.4 9.3 10.6 8.5 10.6 7.6L10.6 3C10.6 2.1 11.3 1.3 12.3 1.3L27.4 1.3C28.3 1.3 29.1 2.1 29.1 3ZM17.2 4.3L15.4 4.3L15.4 6.3L17.2 6.3L17.2 4.3ZM20.7 4.3L18.9 4.3L18.9 6.3L20.7 6.3L20.7 4.3ZM24.2 4.3L22.4 4.3L22.4 6.3L24.2 6.3L24.2 4.3Z" />
		</g>
		<g id="Layer">
			<g id="Layer">
				<path id="Layer" class="shp0" d="M32 36.9C32 32.8 35.3 29.5 39.4 29.5C43.5 29.5 46.8 32.8 46.8 36.9C46.8 41 43.5 44.2 39.4 44.2C35.3 44.2 32 40.9 32 36.9Z" />
			</g>
			<g id="Layer">
				<path id="Layer" class="shp0" d="M55 51.7L55 63.7C55 64.3 54.6 64.7 54 64.7L24.7 64.7C24.1 64.7 23.7 64.3 23.7 63.7L23.7 51.7C23.7 47.8 26.9 44.6 30.8 44.6C33.1 44.7 33.6 44.4 34.1 44.9L39.3 50.2C44.7 44.9 44.5 44.7 45.3 44.7L47.9 44.7C51.8 44.6 55 47.8 55 51.7Z" />
			</g>
		</g>
		<g id="Layer">
			<g id="Layer">
				<path id="Layer" class="shp0" d="M36.5 4.9L31 4.9C30.9 7.3 31.1 7.8 30.8 8.8C32.3 7.9 33.4 8.7 38.5 9.1L38.5 6.9C38.6 5.8 37.7 4.9 36.5 4.9Z" />
			</g>
			<g id="Layer">
				<path id="Layer" fill-rule="evenodd" class="shp0" d="M27.7 25.2L29.7 25.4L29.7 27.7L27.7 27.9C27.3 27.9 27 28.2 26.9 28.5C26.7 29.1 26.5 29.6 26.2 30.1C26 30.4 26.1 30.8 26.3 31.1L27.6 32.7L26 34.3L24.4 33C24.1 32.8 23.7 32.7 23.4 32.9C22.9 33.2 22.4 33.4 21.8 33.6C21.5 33.7 21.2 34 21.2 34.4L21 36.4L18.6 36.4L18.4 34.4C18.4 34 18.1 33.7 17.8 33.6C17.2 33.4 16.7 33.2 16.2 32.9C15.9 32.7 15.5 32.8 15.2 33L13.6 34.3L12 32.7L13.4 31.1C13.6 30.8 13.7 30.4 13.5 30.1C13.2 29.6 13 29.1 12.8 28.5C12.7 28.2 12.4 27.9 12 27.9L10 27.7L10 25.4L12 25.2C12.4 25.2 12.7 24.9 12.8 24.6C13 24 13.2 23.5 13.5 23C13.7 22.7 13.6 22.3 13.4 22L12.1 20.4L13.7 18.8L15.3 20.1C15.6 20.3 16 20.4 16.3 20.2C16.8 19.9 17.3 19.7 17.9 19.5C18.2 19.4 18.5 19.1 18.5 18.7L18.7 16.7L21 16.7L21.2 18.7C21.2 19.1 21.5 19.4 21.8 19.5C22.4 19.7 22.9 19.9 23.4 20.2C23.7 20.4 24.1 20.3 24.4 20.1L26 18.8L27.6 20.4L26.3 22C26.1 22.3 26 22.7 26.2 23C26.5 23.5 26.7 24 26.9 24.6C27 24.9 27.3 25.2 27.7 25.2ZM25.6 26.6C25.6 23.4 23 20.8 19.8 20.8C16.6 20.8 14 23.4 14 26.6C14 29.8 16.6 32.4 19.8 32.4C23 32.4 25.6 29.8 25.6 26.6Z" />
			</g>
			<g id="Layer">
				<path id="Layer" class="shp0" d="M19.8 22.5C17.6 22.5 15.7 24.3 15.7 26.6C15.7 28.8 17.5 30.7 19.8 30.7C22.1 30.7 23.9 28.9 23.9 26.6C23.9 24.3 22.1 22.5 19.8 22.5Z" />
			</g>
			<g id="Layer">
				<path id="Layer" fill-rule="evenodd" class="shp0" d="M31.8 19.6L38.6 25.6L38.6 27.4C33.8 27.8 30 31.8 30 36.7C30 38.9 30.7 40.9 32 42.5L30.8 42.5C25.8 42.5 21.7 46.6 21.7 51.6L21.7 59.5L3.1 59.5C2 59.5 1.1 58.6 1.1 57.5L1.1 6.9C1.1 5.8 2 4.9 3.1 4.9L8.6 4.9L8.6 7.7C8.6 9.7 10.2 11.4 12.3 11.4L27.4 11.4C28.2 11.4 28.9 11.1 29.5 10.7C29.4 11.2 29.4 11.7 29.5 12.2L30.9 18.2C31 18.8 31.3 19.3 31.8 19.6ZM17.3 52.6C17.3 52.1 16.9 51.7 16.4 51.7L6.6 51.7C6.1 51.7 5.7 52.1 5.7 52.6C5.7 53.1 6.1 53.5 6.6 53.5L16.4 53.5C16.9 53.5 17.3 53.1 17.3 52.6ZM17.3 48.2C17.3 47.7 16.9 47.3 16.4 47.3L6.6 47.3C6.1 47.3 5.7 47.7 5.7 48.2C5.7 48.7 6.1 49.1 6.6 49.1L16.4 49.1C16.9 49.1 17.3 48.7 17.3 48.2ZM17.3 43.7C17.3 43.2 16.9 42.8 16.4 42.8L6.6 42.8C6.1 42.8 5.7 43.2 5.7 43.7C5.7 44.2 6.1 44.6 6.6 44.6L16.4 44.6C16.9 44.6 17.3 44.2 17.3 43.7ZM31.4 24.7C31.4 24.2 31 23.8 30.6 23.8L28.4 23.6C28.3 23.3 28.1 23 28 22.7L29.6 20.9C29.8 20.5 29.8 20 29.5 19.7L26.8 17C26.5 16.6 25.9 16.6 25.6 16.9L23.8 18.3C23.5 18.1 23.2 18 22.9 17.9L22.7 15.7C22.6 15.2 22.2 14.9 21.8 14.9L18 14.9C17.5 14.9 17.1 15.3 17.1 15.7L16.9 17.9C16.6 18 16.3 18.2 16 18.3L14.2 16.9C13.8 16.7 13.3 16.7 13 17L10.3 19.7C9.9 20 9.9 20.5 10.2 20.9L11.6 22.7C11.4 23 11.3 23.3 11.2 23.6L9 23.8C8.5 23.9 8.2 24.3 8.2 24.7L8.2 28.5C8.2 29 8.6 29.4 9 29.4L11 29.6C11.1 29.9 11.3 30.2 11.4 30.5L10 32.3C9.8 32.7 9.8 33.2 10.1 33.5L12.8 36.2C13.1 36.6 13.6 36.6 14 36.3L15.8 34.9C16.1 35.1 16.4 35.2 16.7 35.3L16.9 37.5C17 38 17.4 38.3 17.8 38.3L21.6 38.3C22.1 38.3 22.5 37.9 22.5 37.5L22.7 35.3C23 35.2 23.3 35 23.6 34.9L25.4 36.3C25.8 36.5 26.3 36.5 26.6 36.2L29.3 33.5C29.7 33.2 29.7 32.7 29.4 32.3L28 30.5C28.2 30.2 28.3 29.9 28.4 29.6L30.6 29.4C31.1 29.3 31.4 28.9 31.4 28.5L31.4 24.7Z" />
			</g>
		</g>
		<g id="Layer">
			<g id="Layer">
				<path id="Layer" class="shp0" d="M38.1 11.1L32.5 10.4C31.8 10.3 31.3 10.9 31.4 11.6L32.7 17.1L38.1 11.1Z" />
			</g>
			<g id="Layer">
				<path id="Layer" class="shp0" d="M33.9 18.96L39.96 12.17L59.87 29.96L53.81 36.75L33.9 18.96Z" />
			</g>
			<g id="Layer">
				<path id="Layer" class="shp0" d="M64.3 33.8L61.4 31.2L55.3 38L58.2 40.6C59 41.3 60.3 41.3 61.1 40.4L64.5 36.6C65.1 35.9 65.1 34.6 64.3 33.8Z" />
			</g>
		</g>
	</g>
</svg>