<svg xmlns="http://www.w3.org/2000/svg" viewBox="0 0 100 90" width="100" height="90">
	<style>
		tspan { white-space:pre }
		.shp0 { fill: #FFFFFF } 
	</style>
	<g id="Layer">
		<g id="Layer">
			<path id="Layer" fill-rule="evenodd" class="shp0" d="M8.91 11.33C8.91 8.12 11.52 5.51 14.73 5.51C17.95 5.51 20.55 8.12 20.55 11.33C20.55 14.54 17.95 17.14 14.73 17.14C11.52 17.14 8.91 14.54 8.91 11.33ZM21.89 53.79L22.51 71.49L16.36 71.71L15.75 54.1L14.98 46.36C14.95 46.36 14.52 46.34 14.4 46.34L13.64 54.1L13.02 71.71L6.87 71.49L7.51 53.6L8.73 41.21C8.72 41.19 8.72 41.18 8.72 41.16L13.71 43.29L17.8 33.7L10.97 30.78L9.21 34.89L12.12 38.26L10.04 40.52L0 32.52L10.42 20.1C11.48 19.17 12.83 18.58 14.34 18.55C15.97 18.53 17.47 19.16 18.61 20.2L26.74 25.38L35.47 18.17L35.87 18.61L44.91 8.72L45.81 9.55L36.7 19.52L38.01 20.96L27.2 31.63L20.67 27.23L20.92 40.1C20.93 40.67 21.89 53.79 21.89 53.79ZM8.5 34.06L8.42 30.08L6.77 32.07L8.5 34.06Z" />
			<path id="Layer" fill-rule="evenodd" class="shp0" d="M100 42.13L72.93 42.13L75.46 52.59L81.86 52.59L81.86 55.05L76.05 55.05L79.52 69.41L77.13 69.98L73.52 55.05L64.48 55.05L64.48 69.55L62.02 69.55L62.02 55.05L52.68 55.05L49.07 69.98L46.68 69.41L50.15 55.05L44.65 55.05L44.65 52.59L50.74 52.59L53.27 42.13L26.81 42.13L26.81 32.85L27.32 33.19L39.38 20.98L37.78 19.24L46.56 9.56L44.74 7.91L36.11 17.41L35.57 16.81L26.81 23.68L26.81 0L100 0L100 42.13ZM62.02 52.59L62.02 42.13L55.8 42.13L53.27 52.59L62.02 52.59ZM72.92 52.59L70.4 42.13L64.48 42.13L64.48 52.59L72.92 52.59Z" />
		</g>
	</g>
</svg>
