<svg xmlns="http://www.w3.org/2000/svg" viewBox="0 0 100 100" width="100" height="100">
	<style>
		tspan { white-space:pre }
		.shp0 { fill: #110b09 } 
	</style>
	<path id="path2" fill-rule="evenodd" class="shp0" d="M99.55 39.6L93.41 49.87L99.55 60.13L88.64 99.64L48.03 89.01L41.98 78.65L29.79 78.74L0 49.77L29.79 20.81L41.98 20.9L48.03 10.54L88.64 0L99.55 39.6ZM74.16 84.7L56.28 54.63L20.53 54.63L42.99 76.91L74.16 84.7ZM20.44 44.83L56.19 44.83L74.07 14.76L42.99 22.55L20.44 44.83ZM91.39 49.77L82.78 19.71L64.9 49.77L82.78 79.84L91.39 49.77ZM180.86 29.24C189.11 29.24 194.61 35.48 194.52 44.18L194.52 70.22L184.8 70.22L184.8 45.74C184.8 41.07 181.5 38.41 177.1 38.41C172.43 38.41 169.03 42.17 169.03 47.58L169.03 70.13L159.32 70.13L159.32 30.34L168.85 30.34L168.85 35.75L169.03 35.75C171.78 31.53 175.45 29.24 180.86 29.24ZM144.65 53.35L144.65 30.34L154.37 30.34L154.37 70.22L145.02 70.22L145.02 65.54L144.74 65.54C142.08 69.21 138.97 71.32 133.38 71.32C124.48 71.32 119.53 65.63 119.53 56.92L119.53 30.34L129.25 30.34L129.25 55.09C129.25 59.77 132.09 62.33 136.58 62.33C141.53 62.33 144.56 58.67 144.56 53.35L144.65 53.35ZM199.74 30.34L209.46 30.34L209.46 70.13L199.74 70.13L199.74 30.34ZM199.74 17.97L209.46 17.97L209.46 25.94L199.74 25.94L199.74 17.97ZM264.55 30.43L275 30.43L260.98 71.23C257.95 80.03 255.11 83.23 247.04 83.23L240.81 83.23L240.81 74.89L244.57 74.89C248.69 74.89 250.43 72.78 250.43 69.48C250.43 67.28 249.7 64.72 247.41 58.67L236.68 30.34L247.13 30.34L253.64 48.31C254.93 51.98 256.21 57.02 256.21 57.02L256.48 57.02C256.48 57.02 257.49 51.98 258.78 48.31L264.55 30.34L264.55 30.43ZM231.55 62.33L234.03 62.33L234.03 70.03C234.03 70.03 232.93 70.22 228.71 70.22C223.57 70.22 217.89 68.2 217.89 60.68L217.89 37.31L212.39 37.31L212.39 30.34L217.89 30.34L217.89 17.97L227.61 17.97L227.61 30.43L233.84 30.43L233.84 37.4L227.61 37.4L227.61 58.48C227.61 61.42 229.26 62.42 231.55 62.33Z" />
</svg>